<svg viewBox="18.862 27.018 166.525 135.429" xmlns="http://www.w3.org/2000/svg">
    <path fill="" d="M26.3,-48C34.6,-40.6,42.5,-34.9,52.8,-27.1C63.2,-19.4,76,-9.7,81.3,3.1C86.7,15.8,84.5,31.7,76,42.6C67.5,53.5,52.7,59.5,38.9,60.6C25.2,61.6,12.6,57.7,1.9,54.5C-8.8,51.2,-17.6,48.5,-28.2,45.6C-38.9,42.8,-51.3,39.8,-62.2,32.2C-73,24.5,-82.4,12.3,-80,1.4C-77.5,-9.5,-63.4,-19,-55.2,-31.1C-46.9,-43.3,-44.5,-58.1,-36.3,-65.6C-28.1,-73,-14,-73.1,-2.6,-68.6C8.9,-64.2,17.9,-55.3,26.3,-48Z" transform="translate(100 100)"></path>
</svg>